<mxfile host="app.diagrams.net" modified="2022-11-23T18:47:33.106Z" agent="5.0 (Windows NT 10.0; Win64; x64) AppleWebKit/537.36 (KHTML, like Gecko) Chrome/107.0.0.0 Safari/537.36" etag="paH5mSgk4LRHRL9VsMbD" version="20.6.0" type="github">
  <diagram id="MyJDFgbNnC9lY3DK6d-x" name="Page-1">
    <mxGraphModel dx="769" dy="417" grid="1" gridSize="10" guides="1" tooltips="1" connect="1" arrows="1" fold="1" page="1" pageScale="1" pageWidth="413" pageHeight="291" background="#FFFFFF" math="0" shadow="0">
      <root>
        <mxCell id="0" />
        <mxCell id="1" parent="0" />
        <mxCell id="hzZ7OADZ9Wjstboydcab-135" value="" style="endArrow=none;dashed=1;html=1;rounded=0;labelBackgroundColor=#DAD2D8;strokeColor=#A8201A;fontColor=#143642;" parent="1" edge="1">
          <mxGeometry width="50" height="50" relative="1" as="geometry">
            <mxPoint x="114" y="920" as="sourcePoint" />
            <mxPoint x="115" y="137" as="targetPoint" />
          </mxGeometry>
        </mxCell>
        <mxCell id="hzZ7OADZ9Wjstboydcab-127" value="&lt;span style=&quot;&quot;&gt;Application IHM&lt;/span&gt;" style="shape=umlLifeline;perimeter=lifelinePerimeter;whiteSpace=wrap;html=1;container=0;collapsible=0;recursiveResize=0;outlineConnect=0;rounded=0;fillColor=#FAE5C7;strokeColor=#0F8B8D;fontColor=#143642;" parent="1" vertex="1">
          <mxGeometry x="263.46" y="77" width="100" height="843" as="geometry" />
        </mxCell>
        <mxCell id="hzZ7OADZ9Wjstboydcab-128" value="user" style="shape=umlActor;verticalLabelPosition=bottom;verticalAlign=top;html=1;rounded=0;fillColor=#FAE5C7;strokeColor=#0F8B8D;fontColor=#143642;" parent="1" vertex="1">
          <mxGeometry x="100" y="59" width="30" height="60" as="geometry" />
        </mxCell>
        <mxCell id="hzZ7OADZ9Wjstboydcab-129" value="&lt;span style=&quot;&quot;&gt;Application&lt;/span&gt;" style="shape=umlLifeline;perimeter=lifelinePerimeter;whiteSpace=wrap;html=1;container=0;collapsible=0;recursiveResize=0;outlineConnect=0;rounded=0;fillColor=#FAE5C7;strokeColor=#0F8B8D;fontColor=#143642;" parent="1" vertex="1">
          <mxGeometry x="462" y="77" width="100" height="843" as="geometry" />
        </mxCell>
        <mxCell id="hzZ7OADZ9Wjstboydcab-130" value="&lt;span style=&quot;&quot;&gt;Storage&lt;/span&gt;" style="shape=umlLifeline;perimeter=lifelinePerimeter;whiteSpace=wrap;html=1;container=0;collapsible=0;recursiveResize=0;outlineConnect=0;rounded=0;fillColor=#FAE5C7;strokeColor=#0F8B8D;fontColor=#143642;" parent="1" vertex="1">
          <mxGeometry x="660" y="77" width="100" height="843" as="geometry" />
        </mxCell>
        <mxCell id="hzZ7OADZ9Wjstboydcab-131" value="" style="html=1;points=[];perimeter=orthogonalPerimeter;rounded=0;glass=0;labelBackgroundColor=none;fillStyle=auto;fillColor=#FAE5C7;strokeColor=#0F8B8D;fontColor=#143642;" parent="1" vertex="1">
          <mxGeometry x="110" y="147" width="10" height="753" as="geometry" />
        </mxCell>
        <mxCell id="hzZ7OADZ9Wjstboydcab-132" value="" style="html=1;points=[];perimeter=orthogonalPerimeter;rounded=0;glass=0;labelBackgroundColor=none;fillStyle=auto;fillColor=#FAE5C7;strokeColor=#0F8B8D;fontColor=#143642;" parent="1" vertex="1">
          <mxGeometry x="308.46" y="147" width="10" height="753" as="geometry" />
        </mxCell>
        <mxCell id="hzZ7OADZ9Wjstboydcab-133" value="" style="html=1;points=[];perimeter=orthogonalPerimeter;rounded=0;glass=0;labelBackgroundColor=none;fillStyle=auto;fillColor=#FAE5C7;strokeColor=#0F8B8D;fontColor=#143642;" parent="1" vertex="1">
          <mxGeometry x="507" y="149" width="10" height="751" as="geometry" />
        </mxCell>
        <mxCell id="hzZ7OADZ9Wjstboydcab-175" value="Loading screen" style="text;html=1;align=center;verticalAlign=middle;resizable=0;points=[];autosize=1;strokeColor=none;fillColor=none;rounded=0;fontColor=#143642;" parent="1" vertex="1">
          <mxGeometry x="355.25" y="530" width="110" height="30" as="geometry" />
        </mxCell>
        <mxCell id="hzZ7OADZ9Wjstboydcab-176" value="" style="endArrow=block;dashed=1;endFill=0;endSize=12;html=1;rounded=0;exitX=-0.211;exitY=0.186;exitDx=0;exitDy=0;exitPerimeter=0;labelBackgroundColor=#DAD2D8;strokeColor=#A8201A;fontColor=#143642;" parent="1" edge="1">
          <mxGeometry width="160" relative="1" as="geometry">
            <mxPoint x="504.77999999999975" y="559.998" as="sourcePoint" />
            <mxPoint x="318.8899999999999" y="560.5900000000001" as="targetPoint" />
          </mxGeometry>
        </mxCell>
        <mxCell id="hzZ7OADZ9Wjstboydcab-177" value="Select configuration" style="text;html=1;align=center;verticalAlign=middle;resizable=0;points=[];autosize=1;strokeColor=none;fillColor=none;rounded=0;fontColor=#143642;" parent="1" vertex="1">
          <mxGeometry x="150.83" y="490" width="130" height="30" as="geometry" />
        </mxCell>
        <mxCell id="hzZ7OADZ9Wjstboydcab-178" value="" style="endArrow=open;endFill=1;endSize=12;html=1;rounded=0;entryX=0.071;entryY=0.165;entryDx=0;entryDy=0;entryPerimeter=0;labelBackgroundColor=#DAD2D8;strokeColor=#A8201A;fontColor=#143642;" parent="1" edge="1">
          <mxGeometry width="160" relative="1" as="geometry">
            <mxPoint x="119.28999999999996" y="520.3800000000001" as="sourcePoint" />
            <mxPoint x="308.46000000000004" y="520" as="targetPoint" />
          </mxGeometry>
        </mxCell>
        <mxCell id="hzZ7OADZ9Wjstboydcab-179" value="Display configuration&amp;nbsp;interface" style="text;html=1;align=center;verticalAlign=middle;resizable=0;points=[];autosize=1;strokeColor=none;fillColor=none;rounded=0;fontColor=#143642;" parent="1" vertex="1">
          <mxGeometry x="125.83000000000001" y="540" width="180" height="30" as="geometry" />
        </mxCell>
        <mxCell id="hzZ7OADZ9Wjstboydcab-180" value="" style="endArrow=block;dashed=1;endFill=0;endSize=12;html=1;rounded=0;labelBackgroundColor=#DAD2D8;strokeColor=#A8201A;fontColor=#143642;" parent="1" edge="1">
          <mxGeometry width="160" relative="1" as="geometry">
            <mxPoint x="309" y="570" as="sourcePoint" />
            <mxPoint x="120.98666666666645" y="570" as="targetPoint" />
          </mxGeometry>
        </mxCell>
        <mxCell id="hzZ7OADZ9Wjstboydcab-181" value="" style="endArrow=open;endFill=1;endSize=12;html=1;rounded=0;entryX=-0.083;entryY=0.173;entryDx=0;entryDy=0;entryPerimeter=0;labelBackgroundColor=#DAD2D8;strokeColor=#A8201A;fontColor=#143642;" parent="1" edge="1">
          <mxGeometry width="160" relative="1" as="geometry">
            <mxPoint x="318.90999999999985" y="530.56" as="sourcePoint" />
            <mxPoint x="507.0799999999999" y="530.0039999999999" as="targetPoint" />
          </mxGeometry>
        </mxCell>
        <mxCell id="hzZ7OADZ9Wjstboydcab-182" value="Ask interface configuration" style="text;html=1;align=center;verticalAlign=middle;resizable=0;points=[];autosize=1;strokeColor=none;fillColor=none;rounded=0;fontColor=#143642;" parent="1" vertex="1">
          <mxGeometry x="332.83" y="500" width="160" height="30" as="geometry" />
        </mxCell>
        <mxCell id="hzZ7OADZ9Wjstboydcab-183" value="" style="endArrow=block;endFill=0;endSize=12;html=1;rounded=0;entryX=-0.002;entryY=0.916;entryDx=0;entryDy=0;entryPerimeter=0;labelBackgroundColor=#DAD2D8;strokeColor=#A8201A;fontColor=#143642;" parent="1" edge="1">
          <mxGeometry width="160" relative="1" as="geometry">
            <mxPoint x="318.2500000000002" y="850.0000000000002" as="sourcePoint" />
            <mxPoint x="506.98" y="850.2759999999998" as="targetPoint" />
          </mxGeometry>
        </mxCell>
        <mxCell id="hzZ7OADZ9Wjstboydcab-184" value="" style="endArrow=block;endFill=0;endSize=12;html=1;rounded=0;labelBackgroundColor=#DAD2D8;strokeColor=#A8201A;fontColor=#143642;" parent="1" edge="1">
          <mxGeometry width="160" relative="1" as="geometry">
            <mxPoint x="120.00000000000023" y="830.0000000000002" as="sourcePoint" />
            <mxPoint x="309.5" y="830.0000000000002" as="targetPoint" />
          </mxGeometry>
        </mxCell>
        <mxCell id="hzZ7OADZ9Wjstboydcab-185" value="Execute shutdown procedure" style="text;html=1;align=center;verticalAlign=middle;resizable=0;points=[];autosize=1;strokeColor=none;fillColor=none;rounded=0;fontColor=#143642;" parent="1" vertex="1">
          <mxGeometry x="321.25" y="820" width="180" height="30" as="geometry" />
        </mxCell>
        <mxCell id="hzZ7OADZ9Wjstboydcab-186" value="Shutdown" style="text;html=1;align=center;verticalAlign=middle;resizable=0;points=[];autosize=1;strokeColor=none;fillColor=none;rounded=0;fontColor=#143642;" parent="1" vertex="1">
          <mxGeometry x="342.40999999999997" y="870" width="80" height="30" as="geometry" />
        </mxCell>
        <mxCell id="hzZ7OADZ9Wjstboydcab-187" value="" style="endArrow=open;endFill=1;endSize=12;html=1;rounded=0;labelBackgroundColor=#DAD2D8;strokeColor=#A8201A;fontColor=#143642;" parent="1" edge="1">
          <mxGeometry width="160" relative="1" as="geometry">
            <mxPoint x="516.4999999999998" y="869" as="sourcePoint" />
            <mxPoint x="516.3103448275858" y="889" as="targetPoint" />
            <Array as="points">
              <mxPoint x="546.5000000000001" y="869" />
              <mxPoint x="546.5000000000001" y="889" />
            </Array>
          </mxGeometry>
        </mxCell>
        <mxCell id="hzZ7OADZ9Wjstboydcab-188" value="Shutdown" style="text;html=1;align=center;verticalAlign=middle;resizable=0;points=[];autosize=1;strokeColor=none;fillColor=none;rounded=0;fontColor=#143642;" parent="1" vertex="1">
          <mxGeometry x="541.08" y="870" width="80" height="30" as="geometry" />
        </mxCell>
        <mxCell id="hzZ7OADZ9Wjstboydcab-189" value="Select shutdown application" style="text;html=1;align=center;verticalAlign=middle;resizable=0;points=[];autosize=1;strokeColor=none;fillColor=none;rounded=0;fontColor=#143642;" parent="1" vertex="1">
          <mxGeometry x="130" y="800" width="170" height="30" as="geometry" />
        </mxCell>
        <mxCell id="hzZ7OADZ9Wjstboydcab-190" value="" style="endArrow=open;endFill=1;endSize=12;html=1;rounded=0;labelBackgroundColor=#DAD2D8;strokeColor=#A8201A;fontColor=#143642;" parent="1" edge="1">
          <mxGeometry width="160" relative="1" as="geometry">
            <mxPoint x="319.1700000000001" y="867.9999999999995" as="sourcePoint" />
            <mxPoint x="319.00333333333333" y="887.9999999999995" as="targetPoint" />
            <Array as="points">
              <mxPoint x="347" y="868" />
              <mxPoint x="347" y="888" />
            </Array>
          </mxGeometry>
        </mxCell>
        <mxCell id="hzZ7OADZ9Wjstboydcab-198" value="Select change language&lt;br&gt;(En or Fr)" style="text;html=1;align=center;verticalAlign=middle;resizable=0;points=[];autosize=1;strokeColor=none;fillColor=none;rounded=0;fontColor=#143642;" parent="1" vertex="1">
          <mxGeometry x="135" y="586" width="150" height="40" as="geometry" />
        </mxCell>
        <mxCell id="hzZ7OADZ9Wjstboydcab-199" value="" style="endArrow=open;endFill=1;endSize=12;html=1;rounded=0;entryX=0.071;entryY=0.165;entryDx=0;entryDy=0;entryPerimeter=0;labelBackgroundColor=#DAD2D8;strokeColor=#A8201A;fontColor=#143642;" parent="1" edge="1">
          <mxGeometry width="160" relative="1" as="geometry">
            <mxPoint x="119.79000000000019" y="625.3800000000001" as="sourcePoint" />
            <mxPoint x="308.96000000000004" y="625" as="targetPoint" />
          </mxGeometry>
        </mxCell>
        <mxCell id="hzZ7OADZ9Wjstboydcab-202" value="" style="endArrow=open;endFill=1;endSize=12;html=1;rounded=0;entryX=-0.083;entryY=0.173;entryDx=0;entryDy=0;entryPerimeter=0;labelBackgroundColor=#DAD2D8;strokeColor=#A8201A;fontColor=#143642;" parent="1" edge="1">
          <mxGeometry width="160" relative="1" as="geometry">
            <mxPoint x="318.96000000000004" y="635.56" as="sourcePoint" />
            <mxPoint x="507.1300000000001" y="635.0039999999999" as="targetPoint" />
          </mxGeometry>
        </mxCell>
        <mxCell id="hzZ7OADZ9Wjstboydcab-249" value="Ask interface of selected &lt;br&gt;language" style="text;html=1;align=center;verticalAlign=middle;resizable=0;points=[];autosize=1;strokeColor=none;fillColor=none;rounded=0;fontColor=#143642;" parent="1" vertex="1">
          <mxGeometry x="337.83000000000004" y="594" width="150" height="40" as="geometry" />
        </mxCell>
        <mxCell id="hzZ7OADZ9Wjstboydcab-250" value="" style="endArrow=block;dashed=1;endFill=0;endSize=12;html=1;rounded=0;exitX=-0.125;exitY=0.144;exitDx=0;exitDy=0;exitPerimeter=0;labelBackgroundColor=#DAD2D8;strokeColor=#A8201A;fontColor=#143642;" parent="1" edge="1">
          <mxGeometry width="160" relative="1" as="geometry">
            <mxPoint x="307.1200000000001" y="676.0020000000004" as="sourcePoint" />
            <mxPoint x="119.9966666666669" y="676.1700000000001" as="targetPoint" />
          </mxGeometry>
        </mxCell>
        <mxCell id="hzZ7OADZ9Wjstboydcab-251" value="Display new interface" style="text;html=1;align=center;verticalAlign=middle;resizable=0;points=[];autosize=1;strokeColor=none;fillColor=none;rounded=0;fontColor=#143642;" parent="1" vertex="1">
          <mxGeometry x="144.17000000000007" y="647" width="140" height="30" as="geometry" />
        </mxCell>
        <mxCell id="hzZ7OADZ9Wjstboydcab-252" value="Loading screen" style="text;html=1;align=center;verticalAlign=middle;resizable=0;points=[];autosize=1;strokeColor=none;fillColor=none;rounded=0;fontColor=#143642;" parent="1" vertex="1">
          <mxGeometry x="357" y="636" width="110" height="30" as="geometry" />
        </mxCell>
        <mxCell id="hzZ7OADZ9Wjstboydcab-253" value="" style="endArrow=block;dashed=1;endFill=0;endSize=12;html=1;rounded=0;exitX=-0.211;exitY=0.186;exitDx=0;exitDy=0;exitPerimeter=0;labelBackgroundColor=#DAD2D8;strokeColor=#A8201A;fontColor=#143642;" parent="1" edge="1">
          <mxGeometry width="160" relative="1" as="geometry">
            <mxPoint x="504.1199999999999" y="663.998" as="sourcePoint" />
            <mxPoint x="318.2299999999998" y="664.5900000000001" as="targetPoint" />
          </mxGeometry>
        </mxCell>
        <mxCell id="Kjhd1fvxAveM9Puro8ov-1" value="" style="html=1;points=[];perimeter=orthogonalPerimeter;rounded=0;glass=0;labelBackgroundColor=none;fillStyle=auto;fillColor=#FAE5C7;strokeColor=#0F8B8D;fontColor=#143642;" parent="1" vertex="1">
          <mxGeometry x="705" y="252" width="10" height="203" as="geometry" />
        </mxCell>
        <mxCell id="Kjhd1fvxAveM9Puro8ov-2" value="" style="endArrow=block;dashed=1;endFill=0;endSize=12;html=1;rounded=0;exitX=-0.161;exitY=0.058;exitDx=0;exitDy=0;exitPerimeter=0;labelBackgroundColor=#DAD2D8;strokeColor=#A8201A;fontColor=#143642;" parent="1" edge="1">
          <mxGeometry width="160" relative="1" as="geometry">
            <mxPoint x="703.3900000000001" y="310.3499999999999" as="sourcePoint" />
            <mxPoint x="516.0000000000002" y="310.16999999999996" as="targetPoint" />
          </mxGeometry>
        </mxCell>
        <mxCell id="Kjhd1fvxAveM9Puro8ov-3" value="" style="endArrow=block;dashed=1;endFill=0;endSize=12;html=1;rounded=0;labelBackgroundColor=#DAD2D8;strokeColor=#A8201A;fontColor=#143642;" parent="1" edge="1">
          <mxGeometry width="160" relative="1" as="geometry">
            <mxPoint x="504.2100000000005" y="211.81999999999994" as="sourcePoint" />
            <mxPoint x="318.28999999999996" y="211.81999999999994" as="targetPoint" />
          </mxGeometry>
        </mxCell>
        <mxCell id="Kjhd1fvxAveM9Puro8ov-4" value="" style="endArrow=open;endFill=1;endSize=12;html=1;rounded=0;targetPerimeterSpacing=-4;sourcePerimeterSpacing=3;labelBackgroundColor=#DAD2D8;strokeColor=#A8201A;fontColor=#143642;" parent="1" edge="1">
          <mxGeometry width="160" relative="1" as="geometry">
            <mxPoint x="517" y="341.0000000000001" as="sourcePoint" />
            <mxPoint x="707" y="341.0000000000001" as="targetPoint" />
          </mxGeometry>
        </mxCell>
        <mxCell id="Kjhd1fvxAveM9Puro8ov-5" value="" style="endArrow=block;dashed=1;endFill=0;endSize=12;html=1;rounded=0;targetPerimeterSpacing=-4;sourcePerimeterSpacing=3;labelBackgroundColor=#DAD2D8;strokeColor=#A8201A;fontColor=#143642;" parent="1" edge="1">
          <mxGeometry width="160" relative="1" as="geometry">
            <mxPoint x="706.4200000000001" y="417.8299999999998" as="sourcePoint" />
            <mxPoint x="516.5866666666668" y="417.8299999999998" as="targetPoint" />
          </mxGeometry>
        </mxCell>
        <mxCell id="Kjhd1fvxAveM9Puro8ov-6" value="" style="endArrow=open;endFill=1;endSize=12;html=1;rounded=0;entryX=0.118;entryY=0.021;entryDx=0;entryDy=0;entryPerimeter=0;labelBackgroundColor=#DAD2D8;strokeColor=#A8201A;fontColor=#143642;" parent="1" edge="1">
          <mxGeometry width="160" relative="1" as="geometry">
            <mxPoint x="120" y="168.9999999999999" as="sourcePoint" />
            <mxPoint x="309.6400000000001" y="169.42300000000012" as="targetPoint" />
          </mxGeometry>
        </mxCell>
        <mxCell id="Kjhd1fvxAveM9Puro8ov-7" value="Start program process" style="text;html=1;align=center;verticalAlign=middle;resizable=0;points=[];autosize=1;strokeColor=none;fillColor=none;rounded=0;fontColor=#143642;" parent="1" vertex="1">
          <mxGeometry x="343" y="150" width="140" height="30" as="geometry" />
        </mxCell>
        <mxCell id="Kjhd1fvxAveM9Puro8ov-8" value="" style="endArrow=open;endFill=1;endSize=12;html=1;rounded=0;exitX=0.913;exitY=0.022;exitDx=0;exitDy=0;exitPerimeter=0;labelBackgroundColor=#DAD2D8;strokeColor=#A8201A;fontColor=#143642;" parent="1" edge="1">
          <mxGeometry width="160" relative="1" as="geometry">
            <mxPoint x="317.5899999999999" y="178.01599999999996" as="sourcePoint" />
            <mxPoint x="508" y="177.9999999999999" as="targetPoint" />
          </mxGeometry>
        </mxCell>
        <mxCell id="Kjhd1fvxAveM9Puro8ov-9" value="" style="endArrow=block;dashed=1;endFill=0;endSize=12;html=1;rounded=0;exitX=-0.125;exitY=0.144;exitDx=0;exitDy=0;exitPerimeter=0;labelBackgroundColor=#DAD2D8;strokeColor=#A8201A;fontColor=#143642;" parent="1" edge="1">
          <mxGeometry width="160" relative="1" as="geometry">
            <mxPoint x="307.95000000000005" y="478.0020000000003" as="sourcePoint" />
            <mxPoint x="120.82666666666682" y="478.1700000000001" as="targetPoint" />
          </mxGeometry>
        </mxCell>
        <mxCell id="Kjhd1fvxAveM9Puro8ov-10" value="Verify default folder exists" style="text;html=1;align=center;verticalAlign=middle;resizable=0;points=[];autosize=1;strokeColor=none;fillColor=none;rounded=0;fontColor=#143642;" parent="1" vertex="1">
          <mxGeometry x="531.5" y="246" width="160" height="30" as="geometry" />
        </mxCell>
        <mxCell id="Kjhd1fvxAveM9Puro8ov-11" value="Alternative" style="shape=umlFrame;whiteSpace=wrap;html=1;width=60;height=35;fillColor=#FAE5C7;strokeColor=#0F8B8D;fontColor=#143642;rounded=0;" parent="1" vertex="1">
          <mxGeometry x="38" y="285" width="702" height="150" as="geometry" />
        </mxCell>
        <mxCell id="Kjhd1fvxAveM9Puro8ov-12" value="Loading screen" style="text;html=1;align=center;verticalAlign=middle;resizable=0;points=[];autosize=1;strokeColor=none;fillColor=none;rounded=0;fontColor=#143642;" parent="1" vertex="1">
          <mxGeometry x="353.99999999999994" y="183" width="110" height="30" as="geometry" />
        </mxCell>
        <mxCell id="Kjhd1fvxAveM9Puro8ov-13" value="[if folder is &lt;br&gt;inexistent]" style="text;html=1;align=center;verticalAlign=middle;resizable=0;points=[];autosize=1;strokeColor=none;fillColor=none;fontColor=#143642;rounded=0;" parent="1" vertex="1">
          <mxGeometry x="30" y="318" width="80" height="40" as="geometry" />
        </mxCell>
        <mxCell id="Kjhd1fvxAveM9Puro8ov-14" value="[else]" style="text;html=1;align=center;verticalAlign=middle;resizable=0;points=[];autosize=1;strokeColor=none;fillColor=none;fontColor=#143642;rounded=0;" parent="1" vertex="1">
          <mxGeometry x="30" y="383" width="50" height="30" as="geometry" />
        </mxCell>
        <mxCell id="Kjhd1fvxAveM9Puro8ov-15" value="Inexistent default folder" style="text;html=1;align=center;verticalAlign=middle;resizable=0;points=[];autosize=1;strokeColor=none;fillColor=none;rounded=0;fontColor=#143642;" parent="1" vertex="1">
          <mxGeometry x="537.0000000000001" y="283.16999999999996" width="150" height="30" as="geometry" />
        </mxCell>
        <mxCell id="Kjhd1fvxAveM9Puro8ov-16" value="" style="line;strokeWidth=1;fillColor=none;align=left;verticalAlign=middle;spacingTop=-1;spacingLeft=3;spacingRight=3;rotatable=0;labelPosition=right;points=[];portConstraint=eastwest;dashed=1;labelBackgroundColor=#DAD2D8;strokeColor=#0F8B8D;fontColor=#143642;rounded=0;" parent="1" vertex="1">
          <mxGeometry x="38" y="383" width="700" height="8" as="geometry" />
        </mxCell>
        <mxCell id="Kjhd1fvxAveM9Puro8ov-17" value="Generate folder" style="text;html=1;align=center;verticalAlign=middle;resizable=0;points=[];autosize=1;strokeColor=none;fillColor=none;rounded=0;fontColor=#143642;" parent="1" vertex="1">
          <mxGeometry x="557.42" y="315" width="110" height="30" as="geometry" />
        </mxCell>
        <mxCell id="Kjhd1fvxAveM9Puro8ov-18" value="Existent default folder" style="text;html=1;align=center;verticalAlign=middle;resizable=0;points=[];autosize=1;strokeColor=none;fillColor=none;rounded=0;fontColor=#143642;" parent="1" vertex="1">
          <mxGeometry x="541.5" y="392" width="140" height="30" as="geometry" />
        </mxCell>
        <mxCell id="Kjhd1fvxAveM9Puro8ov-19" value="Display operation interface&lt;br&gt;(Console)" style="text;html=1;align=center;verticalAlign=middle;resizable=0;points=[];autosize=1;strokeColor=none;fillColor=none;rounded=0;fontColor=#143642;" parent="1" vertex="1">
          <mxGeometry x="130" y="438" width="170" height="40" as="geometry" />
        </mxCell>
        <mxCell id="Kjhd1fvxAveM9Puro8ov-20" value="" style="endArrow=open;endFill=1;endSize=12;html=1;rounded=0;targetPerimeterSpacing=-4;sourcePerimeterSpacing=3;labelBackgroundColor=#DAD2D8;strokeColor=#A8201A;fontColor=#143642;" parent="1" edge="1">
          <mxGeometry width="160" relative="1" as="geometry">
            <mxPoint x="516.0799999999999" y="274.9999999999999" as="sourcePoint" />
            <mxPoint x="706.0799999999999" y="274.9999999999999" as="targetPoint" />
          </mxGeometry>
        </mxCell>
        <mxCell id="Kjhd1fvxAveM9Puro8ov-21" value="" style="endArrow=block;dashed=1;endFill=0;endSize=12;html=1;rounded=0;targetPerimeterSpacing=-4;sourcePerimeterSpacing=3;exitX=-0.099;exitY=0.603;exitDx=0;exitDy=0;exitPerimeter=0;labelBackgroundColor=#DAD2D8;strokeColor=#A8201A;fontColor=#143642;" parent="1" edge="1">
          <mxGeometry width="160" relative="1" as="geometry">
            <mxPoint x="704.01" y="370.72" as="sourcePoint" />
            <mxPoint x="517.5866666666668" y="370.9999999999999" as="targetPoint" />
          </mxGeometry>
        </mxCell>
        <mxCell id="Kjhd1fvxAveM9Puro8ov-22" value="Folder created successfully" style="text;html=1;align=center;verticalAlign=middle;resizable=0;points=[];autosize=1;strokeColor=none;fillColor=none;rounded=0;fontColor=#143642;" parent="1" vertex="1">
          <mxGeometry x="527.5000000000001" y="343.99999999999994" width="170" height="30" as="geometry" />
        </mxCell>
        <mxCell id="Kjhd1fvxAveM9Puro8ov-23" value="Request user select language&lt;br&gt;(En or Fr)" style="text;html=1;align=center;verticalAlign=middle;resizable=0;points=[];autosize=1;strokeColor=none;fillColor=none;rounded=0;fontColor=#143642;" parent="1" vertex="1">
          <mxGeometry x="125.82999999999994" y="182" width="180" height="40" as="geometry" />
        </mxCell>
        <mxCell id="Kjhd1fvxAveM9Puro8ov-24" value="" style="endArrow=block;endFill=0;endSize=12;html=1;rounded=0;labelBackgroundColor=#DAD2D8;strokeColor=#A8201A;fontColor=#143642;" parent="1" edge="1">
          <mxGeometry width="160" relative="1" as="geometry">
            <mxPoint x="306.75000000000045" y="222.9999999999999" as="sourcePoint" />
            <mxPoint x="120.82999999999993" y="222.9999999999999" as="targetPoint" />
          </mxGeometry>
        </mxCell>
        <mxCell id="Kjhd1fvxAveM9Puro8ov-25" value="Select language" style="text;html=1;align=center;verticalAlign=middle;resizable=0;points=[];autosize=1;strokeColor=none;fillColor=none;rounded=0;fontColor=#143642;" parent="1" vertex="1">
          <mxGeometry x="160" y="223" width="110" height="30" as="geometry" />
        </mxCell>
        <mxCell id="Kjhd1fvxAveM9Puro8ov-26" value="" style="endArrow=open;endFill=1;endSize=12;html=1;rounded=0;entryX=0.071;entryY=0.165;entryDx=0;entryDy=0;entryPerimeter=0;labelBackgroundColor=#DAD2D8;strokeColor=#A8201A;fontColor=#143642;" parent="1" edge="1">
          <mxGeometry width="160" relative="1" as="geometry">
            <mxPoint x="120" y="251.38" as="sourcePoint" />
            <mxPoint x="309.1700000000001" y="250.9999999999999" as="targetPoint" />
          </mxGeometry>
        </mxCell>
        <mxCell id="Kjhd1fvxAveM9Puro8ov-27" value="Loading screen" style="text;html=1;align=center;verticalAlign=middle;resizable=0;points=[];autosize=1;strokeColor=none;fillColor=none;rounded=0;fontColor=#143642;" parent="1" vertex="1">
          <mxGeometry x="357.83000000000004" y="436" width="110" height="30" as="geometry" />
        </mxCell>
        <mxCell id="Kjhd1fvxAveM9Puro8ov-28" value="" style="endArrow=block;dashed=1;endFill=0;endSize=12;html=1;rounded=0;exitX=-0.211;exitY=0.186;exitDx=0;exitDy=0;exitPerimeter=0;labelBackgroundColor=#DAD2D8;strokeColor=#A8201A;fontColor=#143642;" parent="1" edge="1">
          <mxGeometry width="160" relative="1" as="geometry">
            <mxPoint x="504.9499999999998" y="465.99800000000005" as="sourcePoint" />
            <mxPoint x="319.0599999999997" y="466.59000000000003" as="targetPoint" />
          </mxGeometry>
        </mxCell>
        <mxCell id="Kjhd1fvxAveM9Puro8ov-29" value="" style="endArrow=open;endFill=1;endSize=12;html=1;rounded=0;entryX=-0.083;entryY=0.173;entryDx=0;entryDy=0;entryPerimeter=0;labelBackgroundColor=#DAD2D8;strokeColor=#A8201A;fontColor=#143642;" parent="1" edge="1">
          <mxGeometry width="160" relative="1" as="geometry">
            <mxPoint x="318.46000000000004" y="263.55999999999983" as="sourcePoint" />
            <mxPoint x="506.6300000000001" y="263.0039999999999" as="targetPoint" />
          </mxGeometry>
        </mxCell>
        <mxCell id="Kjhd1fvxAveM9Puro8ov-30" value="Ask interface of selected &lt;br&gt;language" style="text;html=1;align=center;verticalAlign=middle;resizable=0;points=[];autosize=1;strokeColor=none;fillColor=none;rounded=0;fontColor=#143642;" parent="1" vertex="1">
          <mxGeometry x="337.83000000000004" y="223" width="150" height="40" as="geometry" />
        </mxCell>
        <mxCell id="Kjhd1fvxAveM9Puro8ov-31" value="Execute application" style="text;html=1;align=center;verticalAlign=middle;resizable=0;points=[];autosize=1;strokeColor=none;fillColor=none;rounded=0;fontColor=#143642;" parent="1" vertex="1">
          <mxGeometry x="150" y="140" width="130" height="30" as="geometry" />
        </mxCell>
        <mxCell id="hqVGJ66W8J-zlILNhwa7-2" value="Select uninstall" style="text;html=1;align=center;verticalAlign=middle;resizable=0;points=[];autosize=1;strokeColor=none;fillColor=none;rounded=0;fontColor=#143642;" vertex="1" parent="1">
          <mxGeometry x="159.87" y="690" width="100" height="30" as="geometry" />
        </mxCell>
        <mxCell id="hqVGJ66W8J-zlILNhwa7-3" value="" style="endArrow=open;endFill=1;endSize=12;html=1;rounded=0;entryX=0.071;entryY=0.165;entryDx=0;entryDy=0;entryPerimeter=0;labelBackgroundColor=#DAD2D8;strokeColor=#A8201A;fontColor=#143642;" edge="1" parent="1">
          <mxGeometry width="160" relative="1" as="geometry">
            <mxPoint x="119.6600000000002" y="720.3800000000001" as="sourcePoint" />
            <mxPoint x="308.83000000000004" y="720" as="targetPoint" />
          </mxGeometry>
        </mxCell>
        <mxCell id="hqVGJ66W8J-zlILNhwa7-4" value="" style="endArrow=open;endFill=1;endSize=12;html=1;rounded=0;entryX=-0.083;entryY=0.173;entryDx=0;entryDy=0;entryPerimeter=0;labelBackgroundColor=#DAD2D8;strokeColor=#A8201A;fontColor=#143642;" edge="1" parent="1">
          <mxGeometry width="160" relative="1" as="geometry">
            <mxPoint x="318.46000000000004" y="728.56" as="sourcePoint" />
            <mxPoint x="506.6300000000001" y="728.0039999999999" as="targetPoint" />
          </mxGeometry>
        </mxCell>
        <mxCell id="hqVGJ66W8J-zlILNhwa7-5" value="Ask execute uninstall &lt;br&gt;program&lt;br&gt;&amp;nbsp;" style="text;html=1;align=center;verticalAlign=middle;resizable=0;points=[];autosize=1;strokeColor=none;fillColor=none;rounded=0;fontColor=#143642;" vertex="1" parent="1">
          <mxGeometry x="342.83000000000004" y="686" width="140" height="60" as="geometry" />
        </mxCell>
        <mxCell id="hqVGJ66W8J-zlILNhwa7-6" value="" style="endArrow=block;dashed=1;endFill=0;endSize=12;html=1;rounded=0;exitX=-0.125;exitY=0.144;exitDx=0;exitDy=0;exitPerimeter=0;labelBackgroundColor=#DAD2D8;strokeColor=#A8201A;fontColor=#143642;" edge="1" parent="1">
          <mxGeometry width="160" relative="1" as="geometry">
            <mxPoint x="306.9900000000001" y="770.0020000000004" as="sourcePoint" />
            <mxPoint x="119.8666666666669" y="770.1700000000001" as="targetPoint" />
          </mxGeometry>
        </mxCell>
        <mxCell id="hqVGJ66W8J-zlILNhwa7-7" value="Notify user of successful &lt;br&gt;message&amp;nbsp;" style="text;html=1;align=center;verticalAlign=middle;resizable=0;points=[];autosize=1;strokeColor=none;fillColor=none;rounded=0;fontColor=#143642;" vertex="1" parent="1">
          <mxGeometry x="139.04000000000008" y="731" width="150" height="40" as="geometry" />
        </mxCell>
        <mxCell id="hqVGJ66W8J-zlILNhwa7-8" value="Uninstalled successfully" style="text;html=1;align=center;verticalAlign=middle;resizable=0;points=[];autosize=1;strokeColor=none;fillColor=none;rounded=0;fontColor=#143642;" vertex="1" parent="1">
          <mxGeometry x="336.87" y="730" width="150" height="30" as="geometry" />
        </mxCell>
        <mxCell id="hqVGJ66W8J-zlILNhwa7-9" value="" style="endArrow=block;dashed=1;endFill=0;endSize=12;html=1;rounded=0;exitX=-0.211;exitY=0.186;exitDx=0;exitDy=0;exitPerimeter=0;labelBackgroundColor=#DAD2D8;strokeColor=#A8201A;fontColor=#143642;" edge="1" parent="1">
          <mxGeometry width="160" relative="1" as="geometry">
            <mxPoint x="503.98999999999967" y="757.998" as="sourcePoint" />
            <mxPoint x="318.0999999999998" y="758.5900000000001" as="targetPoint" />
          </mxGeometry>
        </mxCell>
      </root>
    </mxGraphModel>
  </diagram>
</mxfile>
